<svg width="151" height="151" viewBox="0 0 151 151" fill="none" xmlns="http://www.w3.org/2000/svg">
<circle opacity="0.8" cx="75.5" cy="75.875" r="67.5" stroke="#C3922E" stroke-width="15" stroke-dasharray="4 8"/>
<path d="M78.028 69.1334L56.1179 91.0436L60.7528 95.257C67.3539 88.6559 81.0617 75.1166 83.0842 73.7683C82.073 82.5323 87.1572 88.9368 89.8258 91.0436C90.2471 90.4818 91.6797 88.8525 94.0393 86.8301C85.2752 76.0436 90.3876 65.7627 94.0393 61.9705C93.337 60.9874 91.5112 58.684 89.8258 57.3357C80.0505 66.7739 69.4606 61.2683 65.3876 57.3357C64.264 58.3188 61.6797 60.6222 60.3314 61.9705C64.3763 67.3638 73.8145 68.993 78.028 69.1334Z" fill="#C3922E"/>
<path d="M55.0749 30.344L56.513 29.7186L58.9601 35.3459C59.1818 35.8629 59.2655 36.3547 59.2113 36.8213C59.1559 37.2852 58.9778 37.7019 58.6768 38.0713C58.3773 38.437 57.971 38.7314 57.4577 38.9546C56.9888 39.1585 56.5305 39.2587 56.0828 39.2551C55.6366 39.2477 55.2322 39.1262 54.8695 38.8905C54.5068 38.6548 54.2183 38.2908 54.0042 37.7984L55.4462 37.1713C55.5429 37.3864 55.6708 37.5523 55.8299 37.669C55.9917 37.7845 56.1728 37.8483 56.3731 37.8603C56.5735 37.8723 56.7805 37.8318 56.9942 37.7389C57.226 37.6381 57.4018 37.5044 57.5214 37.3377C57.6398 37.1685 57.6989 36.9693 57.6984 36.7403C57.7005 36.5101 57.6417 36.2538 57.522 35.9713L55.0749 30.344Z" fill="#696969"/>
<path d="M66.8456 26.7723L68.3984 26.4753L69.4696 32.0755C69.587 32.6894 69.5452 33.2571 69.3441 33.7786C69.1458 34.2995 68.8109 34.741 68.3393 35.1031C67.8671 35.4624 67.2822 35.7088 66.5847 35.8422C65.8843 35.9762 65.2484 35.9633 64.677 35.8036C64.105 35.6412 63.6308 35.3544 63.2542 34.9434C62.8777 34.5324 62.6307 34.0199 62.5133 33.4061L61.4421 27.8059L62.9949 27.5089L64.0413 32.9793C64.1096 33.3365 64.2486 33.6396 64.4582 33.8888C64.6706 34.1374 64.9358 34.3137 65.2536 34.4178C65.5709 34.5191 65.9262 34.5321 66.3197 34.4568C66.7131 34.3816 67.0386 34.2383 67.2961 34.0271C67.5559 33.8126 67.7372 33.5508 67.8401 33.2419C67.943 32.933 67.9603 32.5999 67.8919 32.2428L66.8456 26.7723Z" fill="#696969"/>
<path d="M78.0846 28.5023C78.0604 28.1288 77.905 27.8323 77.6185 27.6128C77.3348 27.3934 76.9588 27.2739 76.4904 27.2544C76.1612 27.2406 75.8767 27.2785 75.6369 27.368C75.3972 27.4575 75.2113 27.5848 75.0793 27.7499C74.9473 27.915 74.8753 28.1068 74.8634 28.3252C74.8558 28.5069 74.8904 28.6661 74.9671 28.803C75.0467 28.9399 75.1569 29.0583 75.2978 29.158C75.4387 29.2549 75.5959 29.3382 75.7693 29.408C75.9427 29.4778 76.1179 29.5377 76.2949 29.5877L77.1039 29.8262C77.4299 29.9166 77.7421 30.0334 78.0403 30.1767C78.3414 30.32 78.6085 30.4961 78.8415 30.7049C79.0773 30.9137 79.2603 31.1616 79.3905 31.4486C79.5207 31.7355 79.5779 32.0677 79.5621 32.4452C79.5408 32.9562 79.3914 33.4006 79.1141 33.7786C78.8368 34.1537 78.4467 34.4402 77.9437 34.6382C77.4436 34.8334 76.8445 34.9164 76.1462 34.8873C75.4678 34.859 74.8832 34.7294 74.3924 34.4985C73.9045 34.2677 73.5284 33.9449 73.2642 33.5301C73.0029 33.1154 72.8729 32.6181 72.8744 32.0381L74.4285 32.103C74.4385 32.4077 74.5216 32.6642 74.6778 32.8726C74.834 33.081 75.0421 33.2404 75.3019 33.3507C75.5646 33.4612 75.8605 33.5233 76.1898 33.5371C76.5332 33.5514 76.8362 33.5129 77.0988 33.4215C77.3643 33.3274 77.5747 33.1911 77.73 33.0128C77.8855 32.8316 77.9698 32.6162 77.9831 32.3665C77.9897 32.1393 77.9308 31.9492 77.8064 31.7962C77.6821 31.6403 77.5043 31.5077 77.2728 31.3986C77.0443 31.2867 76.7756 31.1845 76.4667 31.0919L75.4853 30.7951C74.7749 30.5806 74.2189 30.2773 73.8173 29.8852C73.4186 29.4904 73.2323 28.9808 73.2584 28.3563C73.2799 27.8426 73.4377 27.3985 73.732 27.0241C74.0291 26.6498 74.4234 26.3663 74.9148 26.1735C75.4063 25.9779 75.9572 25.8929 76.5675 25.9184C77.1863 25.9442 77.7239 26.0747 78.1804 26.3098C78.6399 26.5423 78.9951 26.8542 79.246 27.2457C79.4971 27.6344 79.6166 28.0744 79.6046 28.5658L78.0846 28.5023Z" fill="#696969"/>
<path d="M83.8894 27.8773L84.2309 26.5968L90.9588 28.3912L90.6172 29.6718L88.0109 28.9766L86.1034 36.1286L84.5881 35.7244L86.4957 28.5725L83.8894 27.8773Z" fill="#696969"/>
<path d="M96.5052 30.5873L92.8538 38.514L91.4178 37.8526L95.0692 29.9259L96.5052 30.5873Z" fill="#696969"/>
<path d="M105.305 39.2927L104.001 38.3771C104.114 38.1371 104.178 37.8994 104.194 37.6642C104.212 37.4266 104.187 37.1974 104.12 36.9767C104.052 36.756 103.944 36.5496 103.794 36.3577C103.648 36.165 103.466 35.992 103.247 35.8386C102.859 35.566 102.446 35.4222 102.009 35.407C101.574 35.3895 101.14 35.5083 100.707 35.7636C100.276 36.0165 99.8723 36.4115 99.4953 36.9487C99.1118 37.4952 98.8735 38.0152 98.7806 38.5087C98.6915 39.0015 98.7289 39.4477 98.8927 39.8473C99.0605 40.2462 99.3374 40.5811 99.7234 40.852C99.9374 41.0021 100.157 41.1146 100.382 41.1893C100.611 41.2634 100.839 41.2968 101.067 41.2896C101.296 41.2841 101.519 41.2358 101.736 41.1449C101.955 41.0555 102.157 40.9201 102.344 40.7386L103.643 41.6611C103.356 41.9663 103.027 42.2106 102.655 42.3941C102.286 42.5791 101.891 42.6942 101.47 42.7393C101.052 42.782 100.623 42.745 100.185 42.6281C99.7476 42.5089 99.3163 42.2999 98.8908 42.0013C98.2629 41.5606 97.8045 41.022 97.5155 40.3853C97.2266 39.7487 97.1328 39.0564 97.2343 38.3085C97.3357 37.5606 97.6557 36.803 98.1943 36.0356C98.7345 35.2659 99.3393 34.7082 100.009 34.3625C100.68 34.0144 101.364 33.868 102.061 33.9233C102.758 33.9787 103.418 34.225 104.041 34.6624C104.439 34.9414 104.77 35.2567 105.033 35.6083C105.297 35.9598 105.486 36.3375 105.602 36.7414C105.719 37.1431 105.754 37.5601 105.708 37.9924C105.665 38.4241 105.531 38.8575 105.305 39.2927Z" fill="#696969"/>
<path d="M104.079 45.7388L110.541 39.8734L114.356 44.0764L113.375 44.9671L110.622 41.9347L108.868 43.5271L111.423 46.3418L110.441 47.2325L107.887 44.4178L106.123 46.0188L108.898 49.0764L107.917 49.9671L104.079 45.7388Z" fill="#696969"/>
<path d="M118.807 61.7167L120.482 61.2892L119.139 60.1947L119.843 59.4264L121.05 60.667L121.322 58.9582L122.34 59.1811L121.872 60.8492L123.488 60.2348L123.8 61.222L122.127 61.6536L123.47 62.748L122.765 63.5164L121.558 62.2717L121.287 63.9846L120.269 63.7617L120.737 62.0935L119.12 62.7039L118.807 61.7167Z" fill="#696969"/>
<path d="M117.583 79.9441L126.605 79.0234L126.311 80.6982L119.723 81.1407L119.709 81.2205L125.737 83.9806L125.47 85.5043L118.858 86.0553L118.845 86.1308L124.895 88.7867L124.602 90.4615L116.43 86.5299L116.699 84.9936L123.032 84.329L123.044 84.2618L117.314 81.4803L117.583 79.9441Z" fill="#696969"/>
<path d="M122.628 95.5318L114.537 92.2601L115.13 90.7945L123.221 94.0661L122.628 95.5318Z" fill="#696969"/>
<path d="M119.914 98.868L121.042 99.5638L117.386 105.49L116.258 104.794L117.674 102.498L111.374 98.6122L112.198 97.2776L118.498 101.164L119.914 98.868Z" fill="#696969"/>
<path d="M108.536 103.124L114.713 109.289L113.596 110.408L110.981 107.799L108.124 110.661L110.739 113.271L109.62 114.393L103.442 108.228L104.562 107.106L107.186 109.725L110.043 106.862L107.419 104.243L108.536 103.124Z" fill="#696969"/>
<path d="M101.178 110.204L105.846 117.577L101.051 120.614L100.342 119.494L103.802 117.303L102.534 115.302L99.3225 117.335L98.6136 116.215L101.825 114.182L100.551 112.169L97.062 114.378L96.3531 113.259L101.178 110.204Z" fill="#696969"/>
<path d="M83.0162 121.977L83.1473 123.701L84.4578 122.567L85.0926 123.394L83.6618 124.367L85.2977 124.932L84.9018 125.896L83.34 125.145L83.6654 126.843L82.6389 126.98L82.5037 125.257L81.1932 126.391L80.5584 125.564L81.9934 124.59L80.3533 124.026L80.7492 123.062L82.311 123.812L81.9898 122.114L83.0162 121.977Z" fill="#696969"/>
<path d="M57.8783 121.237L59.3917 121.736C59.353 121.999 59.36 122.245 59.4128 122.475C59.4647 122.707 59.5547 122.919 59.6828 123.111C59.811 123.303 59.9745 123.469 60.1735 123.61C60.3688 123.752 60.5933 123.865 60.8469 123.949C61.2974 124.097 61.7341 124.116 62.1569 124.004C62.5788 123.895 62.9599 123.656 63.3002 123.286C63.6396 122.92 63.9122 122.425 64.1178 121.802C64.3271 121.168 64.4049 120.601 64.3513 120.102C64.2941 119.604 64.1294 119.188 63.8571 118.853C63.5812 118.519 63.2194 118.279 62.7715 118.131C62.5233 118.049 62.2806 118.005 62.0434 117.998C61.8027 117.994 61.5746 118.028 61.3592 118.1C61.1411 118.172 60.9415 118.282 60.7605 118.432C60.5768 118.581 60.4219 118.769 60.2959 118.997L58.7851 118.489C58.9718 118.114 59.2165 117.785 59.5193 117.502C59.8194 117.218 60.1642 116.994 60.5536 116.829C60.9421 116.667 61.3632 116.579 61.8168 116.564C62.2696 116.552 62.7428 116.627 63.2365 116.79C63.9649 117.03 64.5594 117.414 65.02 117.94C65.4807 118.466 65.7705 119.101 65.8895 119.847C66.0085 120.592 65.9211 121.41 65.6272 122.3C65.3325 123.193 64.9146 123.902 64.3736 124.426C63.8316 124.953 63.219 125.291 62.5358 125.439C61.8526 125.588 61.1494 125.543 60.4264 125.304C59.9651 125.152 59.5575 124.946 59.2037 124.685C58.8499 124.425 58.5592 124.118 58.3318 123.765C58.1035 123.414 57.9492 123.025 57.8688 122.598C57.7849 122.172 57.7881 121.719 57.8783 121.237Z" fill="#696969"/>
<path d="M48.4012 114.483C48.8979 113.685 49.4728 113.094 50.1261 112.711C50.7754 112.328 51.4507 112.146 52.1521 112.164C52.8511 112.181 53.5251 112.391 54.174 112.794C54.8229 113.198 55.3105 113.71 55.6368 114.332C55.9591 114.954 56.0936 115.641 56.0401 116.394C55.9827 117.148 55.7064 117.923 55.2113 118.719C54.7146 119.518 54.1417 120.108 53.4923 120.49C52.8391 120.874 52.163 121.057 51.464 121.04C50.7626 121.022 50.0875 120.811 49.4386 120.408C48.7896 120.004 48.3032 119.493 47.9794 118.873C47.6531 118.252 47.5187 117.564 47.5761 116.81C47.6295 116.057 47.9046 115.282 48.4012 114.483ZM49.7509 115.323C49.4013 115.885 49.1946 116.414 49.1306 116.909C49.0627 117.406 49.1216 117.849 49.3074 118.239C49.4916 118.631 49.7852 118.952 50.188 119.203C50.5909 119.453 51.009 119.575 51.4423 119.566C51.8741 119.561 52.2989 119.418 52.7165 119.14C53.1303 118.862 53.512 118.442 53.8616 117.88C54.2112 117.317 54.4199 116.788 54.4878 116.292C54.5518 115.796 54.4917 115.352 54.3074 114.96C54.1217 114.57 53.8274 114.25 53.4245 113.999C53.0216 113.749 52.6043 113.626 52.1725 113.632C51.7392 113.64 51.3156 113.783 50.9019 114.061C50.4842 114.34 50.1006 114.761 49.7509 115.323Z" fill="#696969"/>
<path d="M42.3626 115.562L41.0407 114.15L43.8878 107.937L43.818 107.862L37.4302 110.291L36.1083 108.879L42.4807 102.916L43.5172 104.023L39.1393 108.12L39.1947 108.179L45.2019 105.861L45.9764 106.689L43.2558 112.538L43.3112 112.597L47.6984 108.491L48.7349 109.599L42.3626 115.562Z" fill="#696969"/>
<path d="M40.6783 100.567L33.0146 104.743L31.4488 101.869C31.1281 101.28 30.9687 100.726 30.9708 100.208C30.9715 99.6863 31.1082 99.2188 31.3809 98.8049C31.6498 98.3899 32.0275 98.0499 32.514 97.7848C33.0054 97.5171 33.4984 97.3828 33.9929 97.3819C34.4874 97.381 34.9545 97.5228 35.3942 97.8073C35.8314 98.0932 36.2111 98.5318 36.5332 99.123L37.5709 101.028L36.4296 101.65L35.4938 99.9319C35.3063 99.5877 35.0928 99.3384 34.8535 99.1841C34.6141 99.0298 34.3611 98.9574 34.0945 98.9668C33.8265 98.9736 33.5565 99.0512 33.2846 99.1993C33.0127 99.3475 32.8024 99.5316 32.6538 99.7517C32.5038 99.9693 32.4319 100.22 32.4381 100.505C32.4405 100.788 32.5361 101.103 32.7251 101.45L33.4182 102.722L39.9219 99.1791L40.6783 100.567Z" fill="#696969"/>
<path d="M36.0577 91.5914L36.5116 93.2167L27.2795 92.605L26.7546 90.7252L34.3326 85.4144L34.7865 87.0397L28.7317 91.1509L28.75 91.2165L36.0577 91.5914ZM32.747 92.4585L31.5091 88.0258L32.7322 87.6843L33.9701 92.1169L32.747 92.4585Z" fill="#696969"/>
<path d="M33.727 82.7522L25.0065 83.0966L24.8774 79.8264C24.8509 79.1565 24.9451 78.5898 25.1599 78.1264C25.3747 77.6602 25.6875 77.3024 26.0984 77.053C26.5064 76.8009 26.9886 76.6639 27.545 76.6419C28.1042 76.6199 28.5943 76.7199 29.0153 76.9421C29.4334 77.1616 29.7637 77.4968 30.0061 77.9478C30.2457 78.3989 30.3787 78.9595 30.4052 79.6294L30.4971 81.9586L29.1857 82.0104L29.1021 79.8941C29.0866 79.5024 29.02 79.1837 28.9023 78.9382C28.7817 78.6927 28.614 78.5146 28.3992 78.4036C28.1815 78.29 27.918 78.2393 27.6085 78.2515C27.2991 78.2637 27.0375 78.3352 26.8238 78.4659C26.6072 78.5967 26.447 78.7892 26.3434 79.0435C26.2368 79.2979 26.1914 79.6224 26.2069 80.017L26.2641 81.4647L33.6646 81.1724L33.727 82.7522ZM29.5976 78.4032L33.4638 76.0883L33.5334 77.8512L29.6657 80.1277L29.5976 78.4032Z" fill="#696969"/>
<path d="M33.4783 73.4918L24.8764 72.0176L25.8352 66.4231L27.1415 66.6469L26.4497 70.6833L28.785 71.0835L29.4271 67.3369L30.7333 67.5608L30.0912 71.3073L32.4391 71.7097L33.1366 67.6398L34.4428 67.8636L33.4783 73.4918Z" fill="#696969"/>
<path d="M40.137 47.6131L38.9044 46.4011L38.663 48.1169L37.6411 47.9118L38.0785 46.2375L36.4752 46.8886L36.1391 45.902L37.809 45.4398L36.4472 44.3751L37.1302 43.5968L38.3656 44.8056L38.607 43.0898L39.6289 43.2949L39.1887 44.9724L40.7948 44.3181L41.1309 45.3047L39.461 45.7669L40.82 46.8348L40.137 47.6131Z" fill="#696969"/>
</svg>
