<svg width="41" height="41" viewBox="0 0 41 41" fill="none" xmlns="http://www.w3.org/2000/svg">
<g clip-path="url(#clip0_2_56447)">
<path d="M40.9431 29.8081L36.5701 18.3769C36.5155 18.2342 36.4074 18.1186 36.2688 18.0545C36.1303 17.9905 35.9722 17.9831 35.8282 18.0339L31.2209 19.6784C31.1469 19.705 31.079 19.7461 31.0212 19.7994C30.9634 19.8527 30.9169 19.9171 30.8844 19.9887C30.8519 20.0603 30.8341 20.1377 30.8321 20.2164C30.8301 20.295 30.8439 20.3732 30.8726 20.4464L31.2732 21.462L28.1293 22.9558L22.9691 21.9862C22.4666 21.8922 21.95 21.903 21.4518 22.0178C20.9536 22.1326 20.4844 22.349 20.0736 22.6534L19.1513 23.3378L18.5406 22.898C18.0797 22.5678 17.5497 22.3469 16.9908 22.2521C16.4318 22.1574 15.8587 22.1912 15.3147 22.3511L13.3344 22.9409L10.7402 21.3894L11.1127 20.4472C11.1415 20.374 11.1553 20.2958 11.1532 20.2171C11.1512 20.1385 11.1334 20.0611 11.101 19.9895C11.0685 19.9179 11.022 19.8535 10.9642 19.8002C10.9063 19.7469 10.8384 19.7058 10.7644 19.6792L6.154 18.0339C6.00986 17.9826 5.85137 17.9898 5.71245 18.0538C5.57352 18.1179 5.46517 18.2339 5.41058 18.3769L1.0391 29.8081C0.984893 29.9489 0.987125 30.1052 1.04533 30.2443C1.10353 30.3835 1.2132 30.4948 1.35146 30.555L5.7245 32.4401C5.79654 32.4713 5.87409 32.4876 5.95256 32.4882C6.03103 32.4887 6.10882 32.4735 6.18129 32.4434C6.25377 32.4133 6.31946 32.369 6.37447 32.313C6.42947 32.257 6.47267 32.1905 6.5015 32.1175L6.94193 31.0026L10.5669 33.0464C10.3226 33.4012 10.2101 33.8303 10.2489 34.2594C10.2877 34.6885 10.4753 35.0904 10.7793 35.3956C10.9502 35.5667 11.1533 35.7024 11.3769 35.7948C11.6004 35.8871 11.84 35.9344 12.0818 35.9339H12.1279C12.1689 36.3923 12.38 36.8187 12.7197 37.129C13.0594 37.4393 13.503 37.6111 13.963 37.6105H14.0106C14.0477 38.0412 14.2358 38.4449 14.5417 38.7503C14.7126 38.9214 14.9157 39.0571 15.1392 39.1495C15.3628 39.2418 15.6023 39.2891 15.8442 39.2886H15.8903C15.9212 39.6378 16.0512 39.9708 16.2648 40.2487C16.4784 40.5266 16.7668 40.7378 17.0962 40.8574C17.4256 40.977 17.7822 41.0001 18.1242 40.9239C18.4663 40.8478 18.7795 40.6757 19.0271 40.4276L19.7229 39.7323L20.6647 40.4355C21.0637 40.7329 21.5566 40.8762 22.0528 40.8389C22.549 40.8016 23.015 40.5862 23.3651 40.2323L23.4314 40.1651C23.7271 39.8632 23.9233 39.478 23.9937 39.0612C24.346 39.1608 24.7185 39.1647 25.0728 39.0725C25.4272 38.9804 25.7506 38.7956 26.01 38.537L26.0584 38.4886C26.387 38.1605 26.5946 37.7305 26.6472 37.269C27.0022 37.3749 27.3793 37.3824 27.7384 37.291C28.0974 37.1995 28.4249 37.0124 28.6861 36.7495L28.7189 36.7167C29.0393 36.399 29.2448 35.9837 29.303 35.5362C29.6192 35.6117 29.9486 35.6112 30.2645 35.5347C30.5804 35.4583 30.8737 35.3081 31.1205 35.0965C31.3672 34.8849 31.5603 34.6178 31.6841 34.3171C31.8078 34.0165 31.8586 33.6908 31.8324 33.3667C31.8221 33.241 31.8004 33.1165 31.7675 32.9948L35.1715 31.3276L35.4839 32.1151C35.5125 32.1883 35.5556 32.2549 35.6106 32.311C35.6655 32.3671 35.7313 32.4116 35.8038 32.4417C35.8763 32.4718 35.9542 32.487 36.0327 32.4863C36.1113 32.4857 36.1888 32.4692 36.2609 32.4378L40.6339 30.5526C40.771 30.4919 40.8796 30.3807 40.9371 30.2422C40.9947 30.1036 40.9968 29.9482 40.9431 29.8081ZM5.63314 31.1253L2.33383 29.7019L6.29846 19.3308L7.27069 19.6769L5.39652 25.0065C5.34475 25.1532 5.35334 25.3145 5.42041 25.4549C5.48748 25.5952 5.60754 25.7032 5.75418 25.755C5.90081 25.8068 6.062 25.7982 6.2023 25.7311C6.3426 25.664 6.4505 25.5439 6.50228 25.3972L8.37176 20.073L9.7969 20.5815L5.63314 31.1253ZM12.5574 34.5667C12.4309 34.6882 12.262 34.7553 12.0867 34.7536C11.9114 34.752 11.7437 34.6818 11.6195 34.5581C11.4953 34.4343 11.4244 34.2669 11.4221 34.0915C11.4198 33.9161 11.4862 33.7468 11.607 33.6198L12.8565 32.3698C12.9504 32.2762 13.07 32.2124 13.2001 32.1867C13.3302 32.1609 13.4651 32.1743 13.5876 32.2251C13.7101 32.2759 13.8149 32.3619 13.8886 32.4722C13.9624 32.5825 14.0019 32.7121 14.0021 32.8448C14.0024 32.933 13.9851 33.0203 13.9513 33.1017C13.9175 33.1832 13.8679 33.257 13.8053 33.319L12.5574 34.5667ZM14.5424 36.1417C14.5073 36.1761 14.4761 36.2128 14.4448 36.2495L14.4386 36.2425C14.3769 36.3071 14.3028 36.3588 14.2209 36.3944C14.1389 36.4301 14.0507 36.449 13.9613 36.45C13.872 36.4511 13.7833 36.4342 13.7005 36.4005C13.6178 36.3668 13.5426 36.3169 13.4794 36.2537C13.4161 36.1905 13.3662 36.1153 13.3324 36.0325C13.2986 35.9498 13.2818 35.8611 13.2827 35.7717C13.2837 35.6823 13.3025 35.594 13.3381 35.512C13.3736 35.4299 13.4252 35.3558 13.4898 35.294L14.6361 34.148C14.6705 34.1136 14.7033 34.0776 14.7345 34.0409L14.74 34.0464C14.8667 33.9252 15.0357 33.8584 15.211 33.8603C15.3863 33.8622 15.5538 33.9326 15.6778 34.0566C15.8018 34.1805 15.8724 34.3481 15.8744 34.5235C15.8765 34.6988 15.8099 34.868 15.6888 34.9948L14.5424 36.1417ZM16.3166 37.9167C16.189 38.0314 16.0222 38.0928 15.8507 38.0882C15.6792 38.0837 15.516 38.0136 15.3946 37.8923C15.2731 37.771 15.2028 37.6078 15.198 37.4362C15.1931 37.2646 15.2542 37.0977 15.3686 36.9698L16.6181 35.7198C16.6787 35.6512 16.7527 35.5956 16.8356 35.5567C16.9184 35.5177 17.0084 35.4961 17.0999 35.4932C17.1915 35.4904 17.2826 35.5063 17.3678 35.54C17.4529 35.5737 17.5303 35.6245 17.595 35.6893C17.6598 35.754 17.7107 35.8314 17.7444 35.9165C17.7782 36.0017 17.7942 36.0928 17.7914 36.1844C17.7886 36.276 17.7671 36.366 17.7282 36.449C17.6893 36.5319 17.6339 36.606 17.5653 36.6667L16.3166 37.9167ZM19.4465 38.3433L18.1971 39.5933C18.0704 39.7145 17.9013 39.7813 17.7261 39.7794C17.5508 39.7775 17.3832 39.707 17.2592 39.5831C17.1352 39.4591 17.0647 39.2915 17.0626 39.1162C17.0606 38.9408 17.1272 38.7716 17.2483 38.6448L18.3946 37.4987C18.429 37.4644 18.4618 37.4284 18.493 37.3917L18.4985 37.3972C18.6251 37.2759 18.7942 37.2091 18.9695 37.211C19.1447 37.213 19.3123 37.2834 19.4363 37.4074C19.5603 37.5313 19.6309 37.6989 19.6329 37.8743C19.635 38.0496 19.5683 38.2188 19.4473 38.3456L19.4465 38.3433ZM30.4072 34.1558C30.2516 34.3132 30.0423 34.4062 29.8211 34.4162C29.6 34.4262 29.3832 34.3525 29.214 34.2097L28.7572 33.8292C28.7253 33.7828 28.6869 33.7412 28.6432 33.7058L27.5897 32.8589C27.4683 32.7676 27.3162 32.7271 27.1655 32.7459C27.0148 32.7647 26.8773 32.8413 26.782 32.9595C26.6867 33.0778 26.641 33.2285 26.6546 33.3798C26.6682 33.5311 26.74 33.6713 26.8549 33.7706L27.7639 34.5042C27.7891 34.5391 27.8179 34.5713 27.8498 34.6003C27.9401 34.6803 28.013 34.7779 28.0642 34.8872C28.1154 34.9964 28.1437 35.115 28.1473 35.2356C28.151 35.3562 28.1299 35.4763 28.0855 35.5884C28.041 35.7006 27.9741 35.8025 27.8888 35.8878L27.856 35.9206C27.7079 36.0694 27.5116 36.1606 27.3024 36.1778C27.0932 36.1949 26.8847 36.137 26.7143 36.0144L25.8093 35.3659L25.7999 35.3589L25.4579 35.1144C25.3315 35.0239 25.1745 34.9874 25.0212 35.0128C24.8679 35.0382 24.7311 35.1235 24.6407 35.2499C24.5503 35.3763 24.5137 35.5334 24.5391 35.6868C24.5646 35.8401 24.6498 35.977 24.7761 36.0675L25.1244 36.3167C25.2278 36.392 25.3136 36.4889 25.376 36.6006C25.4383 36.7124 25.4757 36.8363 25.4856 36.9638C25.4955 37.0914 25.4776 37.2196 25.4332 37.3396C25.3887 37.4596 25.3188 37.5685 25.2283 37.6589L25.1799 37.7073C25.0205 37.8666 24.8066 37.9591 24.5815 37.9663C24.3563 37.9734 24.137 37.8945 23.9679 37.7456L22.9918 36.8862C22.9357 36.8281 22.8682 36.7821 22.7936 36.7513C22.7189 36.7205 22.6387 36.7054 22.5579 36.7071C22.4772 36.7088 22.3976 36.7272 22.3243 36.7611C22.251 36.795 22.1855 36.8438 22.1319 36.9042C22.0783 36.9647 22.0378 37.0356 22.0129 37.1125C21.9881 37.1894 21.9794 37.2706 21.9874 37.351C21.9954 37.4314 22.0199 37.5093 22.0595 37.5798C22.099 37.6502 22.1527 37.7117 22.2171 37.7605L22.549 38.0542C22.6394 38.1337 22.7127 38.2309 22.7643 38.3398C22.8158 38.4486 22.8447 38.5669 22.849 38.6872C22.8533 38.8076 22.833 38.9276 22.7893 39.0399C22.7457 39.1522 22.6796 39.2543 22.5951 39.3401L22.5287 39.4073C22.378 39.5597 22.1773 39.6525 21.9637 39.6685C21.75 39.6846 21.5377 39.6229 21.3659 39.4948L20.5226 38.8651C20.7008 38.5866 20.8009 38.2653 20.8122 37.9348C20.8236 37.6043 20.7459 37.2768 20.5872 36.9867C20.4285 36.6966 20.1947 36.4545 19.9103 36.2859C19.626 36.1173 19.3015 36.0284 18.9709 36.0284H18.9249C18.8837 35.5702 18.6726 35.1439 18.3332 34.8335C17.9937 34.5231 17.5504 34.351 17.0905 34.3511H17.0429C17.0004 33.8861 16.7825 33.4548 16.4335 33.1448C16.0845 32.8348 15.6306 32.6695 15.164 32.6823C15.1273 32.2516 14.9388 31.8479 14.6322 31.5433C14.2866 31.1981 13.8181 31.0042 13.3297 31.0042C12.8413 31.0042 12.3728 31.1981 12.0272 31.5433L11.397 32.173L7.37533 29.9073L10.3021 22.498L12.9525 24.0831C13.0223 24.1249 13.1 24.1517 13.1806 24.1617C13.2613 24.1718 13.3432 24.165 13.4211 24.1417L15.6482 23.4784C16.0203 23.3688 16.4125 23.3453 16.795 23.4099C17.1775 23.4745 17.5403 23.6253 17.8558 23.8511L18.1635 24.073L15.0328 26.3972C14.8006 26.5697 14.6116 26.794 14.481 27.0522C14.3504 27.3105 14.2817 27.5956 14.2803 27.8851C14.2789 28.1745 14.345 28.4603 14.4731 28.7197C14.6013 28.9792 14.7881 29.2053 15.0188 29.38C15.4538 29.7067 15.9774 29.8943 16.5209 29.9182C17.0644 29.942 17.6023 29.801 18.0643 29.5136L20.5226 27.9659C20.8084 28.5362 21.3425 29.3112 22.2702 29.7886C23.3455 30.3417 24.6528 30.3558 26.1599 29.8308L30.2987 32.8128C30.4027 32.8879 30.4891 32.9847 30.5521 33.0965C30.615 33.2083 30.653 33.3325 30.6633 33.4604C30.6736 33.5883 30.6561 33.7169 30.6119 33.8374C30.5677 33.9579 30.4978 34.0673 30.4072 34.1581V34.1558ZM31.16 31.987L26.5925 28.698C26.5132 28.641 26.421 28.6048 26.3242 28.5925C26.2274 28.5802 26.129 28.5923 26.0381 28.6276C24.734 29.1339 23.6509 29.1745 22.8169 28.7519C21.7127 28.1901 21.3745 26.962 21.3714 26.955C21.3486 26.8656 21.305 26.7829 21.2442 26.7135C21.1834 26.6441 21.1071 26.5901 21.0214 26.5559C20.9358 26.5216 20.8433 26.5081 20.7515 26.5163C20.6596 26.5246 20.571 26.5544 20.4929 26.6034L17.4411 28.5183C17.1804 28.6804 16.8767 28.7597 16.57 28.7457C16.2634 28.7318 15.9681 28.6252 15.7232 28.4401C15.6375 28.3754 15.5681 28.2916 15.5205 28.1953C15.4729 28.0991 15.4484 27.993 15.4489 27.8856C15.4495 27.7783 15.475 27.6725 15.5236 27.5767C15.5721 27.4809 15.6423 27.3978 15.7286 27.3339L20.7686 23.5917C21.0497 23.3835 21.3707 23.2355 21.7116 23.157C22.0525 23.0785 22.4059 23.0712 22.7497 23.1355L28.0973 24.1401C28.2189 24.1635 28.3448 24.1473 28.4565 24.094L31.702 22.5519L34.7373 30.2362L31.16 31.987ZM36.3491 31.123L32.183 20.5761L33.6089 20.0675L35.4776 25.3917C35.5294 25.5384 35.6373 25.6585 35.7776 25.7256C35.9179 25.7927 36.0791 25.8013 36.2257 25.7495C36.3723 25.6977 36.4924 25.5898 36.5595 25.4494C36.6265 25.309 36.6351 25.1478 36.5834 25.0011L34.7092 19.6714L35.6814 19.3253L39.6461 29.6964L36.3491 31.123Z" fill="white"/>
<path d="M20.9551 19.3223C22.7698 19.3223 24.5438 18.7839 26.0527 17.7752C27.5617 16.7665 28.7377 15.3329 29.4322 13.6555C30.1267 11.9781 30.3084 10.1324 29.9543 8.35171C29.6003 6.57103 28.7264 4.93537 27.4432 3.65156C26.16 2.36776 24.525 1.49348 22.7451 1.13928C20.9652 0.78508 19.1203 0.966868 17.4437 1.66166C15.7671 2.35645 14.3341 3.53303 13.3258 5.04262C12.3176 6.55221 11.7795 8.32701 11.7795 10.1426C11.7822 12.5764 12.7497 14.9097 14.4699 16.6306C16.1901 18.3516 18.5224 19.3196 20.9551 19.3223ZM20.9551 2.13477C22.5382 2.13477 24.0857 2.60442 25.402 3.48433C26.7183 4.36424 27.7442 5.61489 28.35 7.07812C28.9558 8.54136 29.1143 10.1515 28.8055 11.7048C28.4967 13.2582 27.7343 14.685 26.6149 15.805C25.4955 16.9249 24.0693 17.6875 22.5166 17.9965C20.9639 18.3055 19.3546 18.1469 17.892 17.5408C16.4294 16.9347 15.1793 15.9084 14.2998 14.5915C13.4203 13.2746 12.9508 11.7264 12.9508 10.1426C12.9531 8.01948 13.7971 5.98398 15.2977 4.48272C16.7983 2.98145 18.8329 2.13704 20.9551 2.13477Z" fill="white"/>
<path d="M20.9551 16.9785C22.3065 16.9785 23.6276 16.5776 24.7512 15.8265C25.8749 15.0753 26.7507 14.0077 27.2678 12.7586C27.785 11.5095 27.9203 10.135 27.6567 8.80896C27.393 7.48291 26.7422 6.26487 25.7866 5.30884C24.8311 4.35282 23.6135 3.70176 22.2881 3.43799C20.9626 3.17423 19.5888 3.3096 18.3402 3.827C17.0917 4.34439 16.0245 5.22057 15.2737 6.34474C14.5229 7.4689 14.1222 8.79056 14.1222 10.1426C14.1243 11.9549 14.8448 13.6925 16.1258 14.974C17.4067 16.2556 19.1435 16.9764 20.9551 16.9785ZM20.9551 4.47852C22.0748 4.47852 23.1694 4.81071 24.1004 5.43309C25.0315 6.05546 25.7571 6.94007 26.1856 7.97504C26.6141 9.01001 26.7263 10.1489 26.5078 11.2476C26.2894 12.3463 25.7502 13.3555 24.9584 14.1477C24.1666 14.9398 23.1578 15.4793 22.0596 15.6978C20.9613 15.9164 19.823 15.8042 18.7885 15.3755C17.754 14.9468 16.8698 14.2208 16.2477 13.2894C15.6256 12.3579 15.2935 11.2628 15.2935 10.1426C15.2952 8.64089 15.8922 7.20117 16.9536 6.13931C18.015 5.07745 19.454 4.48017 20.9551 4.47852Z" fill="white"/>
<path d="M32.7423 10.1426C32.7423 10.2195 32.7575 10.2957 32.7869 10.3668C32.8163 10.4379 32.8595 10.5025 32.9139 10.5569C32.9682 10.6113 33.0328 10.6545 33.1039 10.6839C33.1749 10.7134 33.2511 10.7285 33.328 10.7285H36.5734C36.7288 10.7285 36.8777 10.6668 36.9876 10.5569C37.0974 10.447 37.1591 10.298 37.1591 10.1426C37.1591 9.98718 37.0974 9.83814 36.9876 9.72826C36.8777 9.61837 36.7288 9.55664 36.5734 9.55664H33.328C33.1727 9.55664 33.0237 9.61837 32.9139 9.72826C32.804 9.83814 32.7423 9.98718 32.7423 10.1426Z" fill="white"/>
<path d="M32.111 7.4715C32.2151 7.47231 32.3175 7.44534 32.4078 7.39338L34.841 5.96291C34.9757 5.88427 35.0736 5.75536 35.1132 5.60453C35.1528 5.45369 35.1309 5.29329 35.0523 5.15861C34.9737 5.02393 34.8448 4.926 34.6941 4.88637C34.5433 4.84674 34.383 4.86865 34.2483 4.94728L31.8143 6.38009C31.7021 6.44467 31.6145 6.54457 31.5651 6.66421C31.5157 6.78385 31.5073 6.91649 31.5412 7.04141C31.5751 7.16634 31.6494 7.27652 31.7525 7.35475C31.8556 7.43298 31.9816 7.47486 32.111 7.47384V7.4715Z" fill="white"/>
<path d="M31.8145 13.9051L34.2486 15.3379C34.3153 15.3769 34.3889 15.4023 34.4654 15.4128C34.5419 15.4232 34.6197 15.4185 34.6943 15.3989C34.769 15.3792 34.839 15.3451 34.9005 15.2984C34.962 15.2517 35.0136 15.1933 35.0526 15.1266C35.0915 15.0599 35.1169 14.9862 35.1273 14.9097C35.1378 14.8332 35.1331 14.7554 35.1134 14.6807C35.0938 14.606 35.0597 14.5359 35.013 14.4744C34.9663 14.4129 34.908 14.3613 34.8413 14.3223L32.408 12.8926C32.3417 12.8522 32.268 12.8254 32.1912 12.8137C32.1144 12.8021 32.036 12.8059 31.9607 12.8248C31.8853 12.8437 31.8145 12.8775 31.7523 12.9241C31.6901 12.9707 31.6378 13.0292 31.5985 13.0962C31.5591 13.1632 31.5335 13.2373 31.523 13.3143C31.5126 13.3913 31.5176 13.4697 31.5377 13.5447C31.5578 13.6198 31.5926 13.6901 31.6402 13.7516C31.6877 13.8131 31.747 13.8645 31.8145 13.9028V13.9051Z" fill="white"/>
<path d="M5.33679 10.7285H8.58221C8.73754 10.7285 8.88651 10.6668 8.99635 10.5569C9.10618 10.447 9.16789 10.298 9.16789 10.1426C9.16789 9.98718 9.10618 9.83814 8.99635 9.72826C8.88651 9.61837 8.73754 9.55664 8.58221 9.55664H5.33679C5.18146 9.55664 5.03249 9.61837 4.92265 9.72826C4.81282 9.83814 4.75111 9.98718 4.75111 10.1426C4.75111 10.298 4.81282 10.447 4.92265 10.5569C5.03249 10.6668 5.18146 10.7285 5.33679 10.7285Z" fill="white"/>
<path d="M7.06909 5.96291L9.50237 7.39259C9.56872 7.43302 9.64244 7.45984 9.71925 7.47148C9.79606 7.48313 9.87441 7.47937 9.94975 7.46043C10.0251 7.44149 10.0959 7.40775 10.1581 7.36116C10.2203 7.31457 10.2726 7.25607 10.3119 7.18907C10.3513 7.12207 10.3769 7.0479 10.3874 6.97089C10.3978 6.89388 10.3928 6.81556 10.3727 6.74049C10.3526 6.66542 10.3178 6.5951 10.2703 6.53363C10.2227 6.47216 10.1634 6.42077 10.0959 6.38244L7.66179 4.94728C7.59513 4.90835 7.52146 4.88293 7.44499 4.87248C7.36851 4.86202 7.29073 4.86675 7.21607 4.88637C7.06531 4.926 6.93645 5.02393 6.85785 5.15861C6.77926 5.29329 6.75735 5.45369 6.79697 5.60452C6.83658 5.75536 6.93447 5.88427 7.06909 5.96291Z" fill="white"/>
<path d="M9.50237 12.8949L7.06909 14.3223C6.93447 14.4009 6.83658 14.5298 6.79697 14.6807C6.75735 14.8315 6.77926 14.9919 6.85785 15.1266C6.93645 15.2613 7.06531 15.3592 7.21607 15.3988C7.36684 15.4384 7.52717 15.4165 7.66179 15.3379L10.0959 13.9074C10.1634 13.8691 10.2227 13.8177 10.2703 13.7562C10.3178 13.6948 10.3526 13.6244 10.3727 13.5494C10.3928 13.4743 10.3978 13.396 10.3874 13.319C10.3769 13.242 10.3513 13.1678 10.3119 13.1008C10.2726 13.0338 10.2203 12.9753 10.1581 12.9287C10.0959 12.8821 10.0251 12.8484 9.94975 12.8294C9.87441 12.8105 9.79606 12.8067 9.71925 12.8184C9.64244 12.83 9.56872 12.8568 9.50237 12.8973V12.8949Z" fill="white"/>
<path d="M19.6408 12.691C19.6957 12.7501 19.7622 12.7972 19.8361 12.8294C19.91 12.8616 19.9897 12.8782 20.0703 12.8782C20.1509 12.8782 20.2307 12.8616 20.3046 12.8294C20.3785 12.7972 20.4449 12.7501 20.4998 12.691L24.509 8.39416C24.5615 8.33773 24.6023 8.27151 24.6293 8.19928C24.6562 8.12704 24.6686 8.05021 24.6659 7.97317C24.6631 7.89612 24.6452 7.82038 24.6132 7.75025C24.5812 7.68013 24.5357 7.617 24.4793 7.56447C24.4229 7.51194 24.3567 7.47104 24.2845 7.4441C24.2123 7.41717 24.1355 7.40472 24.0585 7.40748C23.9815 7.41024 23.9057 7.42814 23.8357 7.46017C23.7656 7.4922 23.7025 7.53773 23.65 7.59416L20.0695 11.4317L18.2594 9.49181C18.1534 9.37785 18.0064 9.3107 17.8509 9.30514C17.6954 9.29957 17.544 9.35604 17.4301 9.46213C17.3162 9.56821 17.2491 9.71523 17.2435 9.87082C17.2379 10.0264 17.2944 10.1779 17.4004 10.2918L19.6408 12.691Z" fill="white"/>
</g>
<defs>
<clipPath id="clip0_2_56447">
<rect width="39.9821" height="40" fill="white" transform="translate(0.964003 0.962891)"/>
</clipPath>
</defs>
</svg>
