<svg width="15" height="15" viewBox="0 0 15 15" fill="none" xmlns="http://www.w3.org/2000/svg">
<path fill-rule="evenodd" clip-rule="evenodd" d="M14.0703 7.26225L7.32278 11.5999C7.16878 11.6989 6.97185 11.6989 6.81785 11.5999L0.0703125 7.26225V13.0741C0.0703125 13.8469 0.697513 14.4741 1.47031 14.4741H12.6703C13.4431 14.4741 14.0703 13.8469 14.0703 13.0741V7.26225ZM3.00098 4.90325L2.98278 4.88039L0.536979 6.45259L7.07031 10.6526L13.6036 6.45259L11.1578 4.88039C11.0972 4.95879 11.0318 5.03579 10.9623 5.11139C10.5731 5.53279 10.0238 5.90799 9.46245 6.20805L8.27058 8.19419C8.01765 8.61605 7.56218 8.87412 7.07031 8.87412C6.57845 8.87412 6.12298 8.61605 5.87005 8.19419L4.67818 6.20852C4.11631 5.90752 3.56751 5.53279 3.17831 5.11139C3.11578 5.04325 3.05651 4.97419 3.00098 4.90325ZM5.34178 5.50012L6.67038 7.71399C6.75438 7.85492 6.90651 7.94079 7.07031 7.94079C7.23411 7.94079 7.38625 7.85492 7.47025 7.71399L8.79885 5.50012C9.34158 5.23179 9.90065 4.88505 10.2763 4.47812C10.6076 4.11925 10.8036 3.71185 10.8036 3.27412C10.8036 2.63572 10.5232 2.04072 10.0318 1.56239C9.36305 0.910454 8.28738 0.474121 7.07031 0.474121C5.85325 0.474121 4.77758 0.910454 4.10885 1.56239C3.61745 2.04072 3.33698 2.63572 3.33698 3.27412C3.33698 3.71185 3.53298 4.11925 3.86431 4.47812C4.23998 4.88505 4.79858 5.23179 5.34178 5.50012ZM5.67031 2.80745C5.41271 2.80745 5.20365 3.01652 5.20365 3.27412C5.20365 3.53172 5.41271 3.74079 5.67031 3.74079C5.92791 3.74079 6.13698 3.53172 6.13698 3.27412C6.13698 3.01652 5.92791 2.80745 5.67031 2.80745ZM7.07031 2.80745C6.81271 2.80745 6.60365 3.01652 6.60365 3.27412C6.60365 3.53172 6.81271 3.74079 7.07031 3.74079C7.32791 3.74079 7.53698 3.53172 7.53698 3.27412C7.53698 3.01652 7.32791 2.80745 7.07031 2.80745ZM8.47031 2.80745C8.21271 2.80745 8.00365 3.01652 8.00365 3.27412C8.00365 3.53172 8.21271 3.74079 8.47031 3.74079C8.72791 3.74079 8.93698 3.53172 8.93698 3.27412C8.93698 3.01652 8.72791 2.80745 8.47031 2.80745Z" fill="white"/>
</svg>
