<svg width="15" height="15" viewBox="0 0 15 15" fill="none" xmlns="http://www.w3.org/2000/svg">
<g clip-path="url(#clip0_2_160354)">
<path d="M7.5 3.15625C6.59144 3.15625 5.70329 3.42567 4.94785 3.93044C4.19241 4.4352 3.60362 5.15265 3.25593 5.99205C2.90824 6.83145 2.81727 7.7551 2.99452 8.6462C3.17177 9.5373 3.60928 10.3558 4.25173 10.9983C4.89418 11.6407 5.71271 12.0782 6.60381 12.2555C7.49491 12.4327 8.41856 12.3418 9.25795 11.9941C10.0974 11.6464 10.8148 11.0576 11.3196 10.3022C11.8243 9.54671 12.0938 8.65856 12.0938 7.75C12.0925 6.53205 11.6081 5.36435 10.7469 4.50314C9.88565 3.64192 8.71795 3.15752 7.5 3.15625ZM9.59125 9.33375C9.55053 9.38534 9.4987 9.42707 9.43962 9.45586C9.38054 9.48464 9.31572 9.49973 9.25 9.5C9.15108 9.50079 9.05505 9.46671 8.97875 9.40375L7.22875 8.09125C7.17719 8.05051 7.13547 7.99867 7.10669 7.93959C7.07791 7.88052 7.06281 7.81572 7.0625 7.75V4.6875C7.0625 4.57147 7.1086 4.46019 7.19064 4.37814C7.27269 4.29609 7.38397 4.25 7.5 4.25C7.61603 4.25 7.72731 4.29609 7.80936 4.37814C7.89141 4.46019 7.9375 4.57147 7.9375 4.6875V7.54L9.52125 8.72125C9.56678 8.75635 9.6048 8.80024 9.63305 8.8503C9.66131 8.90036 9.67923 8.95558 9.68576 9.0127C9.69229 9.06981 9.68729 9.12766 9.67105 9.18281C9.65482 9.23795 9.62768 9.28928 9.59125 9.33375Z" fill="white"/>
<path d="M7.5 1.1875C6.20206 1.1875 4.93327 1.57238 3.85407 2.29348C2.77488 3.01458 1.93374 4.0395 1.43704 5.23864C0.940343 6.43778 0.810384 7.75728 1.0636 9.03028C1.31682 10.3033 1.94183 11.4726 2.85961 12.3904C3.7774 13.3082 4.94672 13.9332 6.21972 14.1864C7.49272 14.4396 8.81222 14.3097 10.0114 13.813C11.2105 13.3163 12.2354 12.4751 12.9565 11.3959C13.6776 10.3167 14.0625 9.04794 14.0625 7.75C14.0604 6.01016 13.3683 4.34217 12.1381 3.11191C10.9078 1.88166 9.23985 1.18958 7.5 1.1875ZM7.5 13.2481C6.41259 13.2481 5.3496 12.9256 4.44544 12.3215C3.54129 11.7173 2.83659 10.8587 2.42046 9.85402C2.00432 8.84938 1.89544 7.7439 2.10758 6.67738C2.31973 5.61086 2.84337 4.6312 3.61229 3.86228C4.3812 3.09336 5.36086 2.56973 6.42738 2.35758C7.4939 2.14544 8.59938 2.25432 9.60402 2.67045C10.6087 3.08659 11.4673 3.79129 12.0715 4.69544C12.6756 5.59959 12.9981 6.66259 12.9981 7.75C12.9967 9.20775 12.417 10.6054 11.3862 11.6362C10.3554 12.667 8.95775 13.2467 7.5 13.2481Z" fill="white"/>
</g>
<defs>
<clipPath id="clip0_2_160354">
<rect width="14" height="14" fill="white" transform="translate(0.5 0.75)"/>
</clipPath>
</defs>
</svg>
