<svg width="150" height="32" viewBox="0 0 150 32" fill="none" xmlns="http://www.w3.org/2000/svg">
<g opacity="0.5">
<path d="M41.624 22.3872H51.9271V19.1868H45.2859V7.13184H41.624V22.3872Z" fill="white"/>
<path d="M58.031 20.2538C56.562 20.2538 55.7966 18.9309 55.7966 16.9466C55.7966 14.9624 56.562 13.6182 58.031 13.6182C59.4998 13.6182 60.286 14.9624 60.286 16.9466C60.286 18.9309 59.4998 20.2538 58.031 20.2538ZM58.0517 22.7288C61.4653 22.7288 63.6997 20.2325 63.6997 16.9466C63.6997 13.6608 61.4653 11.1646 58.0517 11.1646C54.6586 11.1646 52.3828 13.6608 52.3828 16.9466C52.3828 20.2325 54.6586 22.7288 58.0517 22.7288Z" fill="white"/>
<path d="M69.6085 26.164C71.1809 26.164 72.567 25.8013 73.4981 24.9479C74.3463 24.1585 74.9049 22.9636 74.9049 21.3207V11.4634H71.6775V12.6368H71.636C71.0153 11.7194 70.0637 11.1433 68.6569 11.1433C66.0293 11.1433 64.2087 13.405 64.2087 16.6054C64.2087 19.9552 66.4224 21.7901 68.8017 21.7901C70.0844 21.7901 70.8912 21.2567 71.512 20.5312H71.5947V21.6195C71.5947 22.9423 70.9947 23.7103 69.5672 23.7103C68.4499 23.7103 67.8914 23.2197 67.7051 22.6435H64.4363C64.7673 24.9266 66.6914 26.164 69.6085 26.164ZM69.5879 19.2084C68.3259 19.2084 67.4982 18.1416 67.4982 16.4987C67.4982 14.8345 68.3259 13.7677 69.5879 13.7677C70.9947 13.7677 71.7395 15.0052 71.7395 16.4774C71.7395 18.0136 71.0567 19.2084 69.5879 19.2084Z" fill="white"/>
<path d="M81.5416 20.2538C80.0727 20.2538 79.3072 18.9309 79.3072 16.9466C79.3072 14.9624 80.0727 13.6182 81.5416 13.6182C83.0105 13.6182 83.7968 14.9624 83.7968 16.9466C83.7968 18.9309 83.0105 20.2538 81.5416 20.2538ZM81.5623 22.7288C84.9761 22.7288 87.2104 20.2325 87.2104 16.9466C87.2104 13.6608 84.9761 11.1646 81.5623 11.1646C78.1694 11.1646 75.8936 13.6608 75.8936 16.9466C75.8936 20.2325 78.1694 22.7288 81.5623 22.7288Z" fill="white"/>
<path d="M88.1943 22.3874H91.5667V11.4633H88.1943V22.3874ZM88.1943 9.94846H91.5667V7.13208H88.1943V9.94846Z" fill="white"/>
<path d="M93.0305 25.9934H96.4028V21.2567H96.4442C97.1062 22.1742 98.0787 22.7289 99.444 22.7289C102.216 22.7289 104.058 20.4673 104.058 16.9254C104.058 13.6396 102.341 11.1433 99.5268 11.1433C98.0787 11.1433 97.0442 11.8047 96.3201 12.7862H96.2579V11.4634H93.0305V25.9934ZM98.5752 20.0406C97.1269 20.0406 96.2994 18.8243 96.2994 17.0535C96.2994 15.2826 97.0442 13.9383 98.513 13.9383C99.9613 13.9383 100.644 15.1759 100.644 17.0535C100.644 18.9097 99.8578 20.0406 98.5752 20.0406Z" fill="white"/>
<path d="M109.548 22.7289C112.32 22.7289 114.369 21.4914 114.369 19.1018C114.369 16.3066 112.176 15.816 110.314 15.4959C108.969 15.2398 107.769 15.1333 107.769 14.3651C107.769 13.6824 108.41 13.3623 109.238 13.3623C110.169 13.3623 110.81 13.6609 110.934 14.6425H114.038C113.872 12.4875 112.258 11.1433 109.258 11.1433C106.755 11.1433 104.686 12.3381 104.686 14.6425C104.686 17.2028 106.652 17.7149 108.493 18.0349C109.9 18.2909 111.182 18.3976 111.182 19.3792C111.182 20.0832 110.541 20.4673 109.527 20.4673C108.41 20.4673 107.707 19.9339 107.583 18.8458H104.396C104.5 21.2567 106.445 22.7289 109.548 22.7289Z" fill="white"/>
<path d="M118.95 22.7076C120.419 22.7076 121.35 22.1101 122.115 21.0433H122.177V22.3875H125.405V11.4634H122.032V17.5656C122.032 18.8671 121.329 19.7632 120.17 19.7632C119.094 19.7632 118.577 19.1018 118.577 17.907V11.4634H115.226V18.6324C115.226 21.0646 116.508 22.7076 118.95 22.7076Z" fill="white"/>
<path d="M126.871 22.3877H130.244V16.2643C130.244 14.9627 130.864 14.0453 131.919 14.0453C132.933 14.0453 133.409 14.728 133.409 15.9015V22.3877H136.781V16.2643C136.781 14.9627 137.381 14.0453 138.457 14.0453C139.471 14.0453 139.947 14.728 139.947 15.9015V22.3877H143.319V15.2828C143.319 12.8291 142.119 11.1436 139.719 11.1436C138.354 11.1436 137.216 11.741 136.388 13.0638H136.347C135.809 11.8903 134.754 11.1436 133.367 11.1436C131.836 11.1436 130.823 11.8903 130.161 13.0211H130.099V11.4636H126.871V22.3877Z" fill="white"/>
<path fill-rule="evenodd" clip-rule="evenodd" d="M21.2452 28.7016C28.2438 28.7016 33.9173 23.021 33.9173 16.0136C33.9173 9.00629 28.2438 3.32568 21.2452 3.32568C14.2467 3.32568 8.57324 9.00629 8.57324 16.0136C8.57324 23.021 14.2467 28.7016 21.2452 28.7016ZM25.1985 9.23627C25.3909 8.55189 24.7276 8.1472 24.1218 8.57933L15.6652 14.6114C15.0082 15.0799 15.1116 16.0136 15.8204 16.0136H18.0473V15.9964H22.3874L18.851 17.2456L17.2921 22.7911C17.0996 23.4754 17.7629 23.8801 18.3688 23.4479L26.8253 17.4159C27.4823 16.9474 27.3789 16.0136 26.6701 16.0136H23.2931L25.1985 9.23627Z" fill="white"/>
</g>
</svg>
