<svg width="17" height="16" viewBox="0 0 17 16" fill="none" xmlns="http://www.w3.org/2000/svg">
<path d="M16.2731 0.236645C16.1635 0.126961 16.0246 0.0511514 15.8729 0.018308C15.7212 -0.0145354 15.5632 -0.00301825 15.4179 0.0514783L1.02483 5.48573C0.875464 5.5413 0.745941 5.63977 0.652608 5.76872C0.559276 5.89768 0.506318 6.05133 0.500419 6.2103C0.495311 6.36835 0.536965 6.52441 0.620182 6.659C0.7034 6.79358 0.824496 6.90073 0.968356 6.96707L6.82563 9.66406L9.52837 15.5331C9.59318 15.6728 9.6968 15.7911 9.82693 15.8738C9.95705 15.9566 10.1082 16.0004 10.2625 16C10.4218 15.9941 10.5758 15.9413 10.7051 15.8481C10.8343 15.755 10.933 15.6257 10.9887 15.4767L16.4345 1.11418C16.4973 0.968326 16.5155 0.807204 16.4868 0.651067C16.458 0.49493 16.3837 0.350747 16.2731 0.236645ZM12.4651 2.90144L7.2613 8.09417L3.36452 6.3069L12.4651 2.90144ZM10.1899 13.1178L8.39887 9.26153L13.6027 4.0688L10.1899 13.1178Z" fill="white"/>
</svg>
